<svg width="41" height="41" viewBox="0 0 41 41" fill="none" xmlns="http://www.w3.org/2000/svg">
<g clip-path="url(#clip0_1_512)">
<path d="M38.098 6.10534C38.43 5.77339 38.43 5.2352 38.098 4.90326C37.7661 4.57131 37.2279 4.57131 36.8959 4.90326L18.997 22.8022L11.598 15.4033C11.2661 15.0713 10.7279 15.0713 10.3959 15.4033C10.064 15.7352 10.064 16.2734 10.3959 16.6053L18.3959 24.6053C18.7279 24.9373 19.2661 24.9373 19.598 24.6053L38.098 6.10534Z" fill="#6E7191"/>
<path d="M31.1562 9.27893C31.3838 9.05408 31.4507 8.70742 31.2859 8.43312C30.4118 6.97774 28.8179 6.00391 26.9966 6.00391H9.99658C7.23516 6.00391 4.99658 8.24248 4.99658 11.0039V29.0039C4.99658 31.7653 7.23516 34.0039 9.99658 34.0039H26.9966C29.758 34.0039 31.9966 31.7653 31.9966 29.0039V16.0381C31.9966 15.2834 31.0863 14.903 30.5493 15.4334C30.3876 15.5931 30.2966 15.8109 30.2966 16.0381V29.0039C30.2966 30.8264 28.8191 32.3039 26.9966 32.3039H9.99658C8.17404 32.3039 6.69658 30.8264 6.69658 29.0039V11.0039C6.69658 9.18137 8.17404 7.70391 9.99658 7.70391H26.9966C28.0737 7.70391 29.0303 8.21994 29.6326 9.01826C29.9877 9.48896 30.7367 9.69327 31.1562 9.27893Z" fill="#6E7191"/>
</g>
<defs>
<clipPath id="clip0_1_512">
<rect width="40" height="40" fill="white" transform="translate(0.996582 0.00390625)"/>
</clipPath>
</defs>
</svg>
