<svg width="41" height="41" viewBox="0 0 41 41" fill="none" xmlns="http://www.w3.org/2000/svg">
<g clip-path="url(#clip0_1_495)">
<path fill-rule="evenodd" clip-rule="evenodd" d="M4.34792 10.5552C4.22554 10.9837 4.13601 11.4217 4.08001 11.8648C4.02404 12.3168 3.99631 12.7721 3.99662 13.2279V28.7826C3.99544 29.2197 4.02091 29.6563 4.07291 30.0901C4.12359 30.5174 4.20863 30.9397 4.32662 31.3525C4.53374 32.1438 4.93121 32.8673 5.48252 33.455C5.76214 33.7345 6.07746 33.9731 6.41931 34.1643C6.77462 34.3636 7.14828 34.5246 7.53529 34.6447C8.33437 34.8878 9.16337 35.0088 9.99612 35.0037H24.9962C25.4267 35.0063 25.857 34.9802 26.2843 34.9255C26.7053 34.8706 27.1214 34.7795 27.528 34.6532C28.3082 34.4313 29.0185 34.0021 29.5896 33.4079C29.8486 33.1193 30.0681 32.7954 30.2425 32.4451C30.4251 32.079 30.5716 31.6946 30.679 31.2977C30.7896 30.8889 30.87 30.472 30.9203 30.0505C30.971 29.6312 30.9965 29.2089 30.9966 28.7863V13.2316C30.9969 12.7958 30.9757 12.3603 30.9318 11.9269C30.888 11.49 30.8132 11.0571 30.7083 10.6316C30.5371 9.82305 30.163 9.07563 29.6242 8.46486C29.3462 8.1771 29.0266 7.93634 28.6768 7.75098C28.311 7.55864 27.9263 7.4085 27.5289 7.30343C26.7006 7.09293 25.8498 6.99268 24.9971 7.0049H9.44789C8.70029 6.99399 7.95574 7.10065 7.23899 7.32136C6.58148 7.51913 5.98279 7.88578 5.49849 8.38758C5.22915 8.68282 4.99891 9.01401 4.81365 9.37216C4.62024 9.74914 4.46377 10.1454 4.34792 10.5552ZM25.0065 33.3037L9.99612 33.3037L9.98569 33.3038C9.32641 33.3078 8.66936 33.2123 8.03489 33.0198C7.76442 32.9355 7.50202 32.8224 7.25105 32.6816L7.24908 32.6805C7.05208 32.5704 6.86841 32.4331 6.70353 32.2716C6.35909 31.8977 6.10543 31.4347 5.97123 30.922L5.9664 30.9036L5.96116 30.8852C5.86804 30.5595 5.801 30.2264 5.76108 29.8898L5.76083 29.8877C5.71707 29.5227 5.69562 29.1552 5.69662 28.7872L5.69662 13.2267C5.69636 12.8414 5.71976 12.457 5.76686 12.0758C5.81209 11.7187 5.88423 11.3663 5.98256 11.0221L5.98379 11.0177C6.06844 10.7183 6.18293 10.4278 6.32485 10.1508C6.43854 9.93151 6.57775 9.73017 6.73815 9.55128C7.02028 9.26454 7.36141 9.05978 7.72865 8.94932L7.73931 8.94608C8.28652 8.77757 8.8539 8.69641 9.42308 8.70472L9.43548 8.7049H25.0093L25.0215 8.70473C25.7218 8.69469 26.4208 8.77663 27.1019 8.94895C27.3708 9.02066 27.6326 9.12285 27.8831 9.25433C28.0617 9.3493 28.2278 9.47189 28.3755 9.61946C28.7039 10.0021 28.9367 10.4712 29.0451 10.9836L29.051 11.0112L29.0577 11.0386C29.1434 11.3862 29.2045 11.7398 29.2403 12.0966L29.2405 12.0981C29.2784 12.4725 29.2969 12.8504 29.2966 13.2303V28.786C29.2965 29.1404 29.2751 29.4948 29.2326 29.8462L29.2322 29.8492C29.1916 30.1898 29.1268 30.5256 29.038 30.8538C28.9602 31.1415 28.8538 31.4206 28.7212 31.6864L28.7207 31.6874C28.618 31.8937 28.4909 32.0829 28.3434 32.251C27.981 32.6209 27.5394 32.8826 27.0629 33.0181L27.0433 33.0237L27.0238 33.0297C26.7104 33.127 26.3901 33.1972 26.0664 33.2395C25.7147 33.2845 25.3607 33.3059 25.0065 33.3037Z" fill="#56566F"/>
</g>
<defs>
<clipPath id="clip0_1_495">
<rect width="40" height="40" fill="white" transform="translate(0.996582 0.00390625)"/>
</clipPath>
</defs>
</svg>
